<svg xmlns="http://www.w3.org/2000/svg" xmlns:xlink="http://www.w3.org/1999/xlink" version="1.1" x="0px" y="0px" viewBox="0 0 100 125" enable-background="new 0 0 100 100" xml:space="preserve">
  <path d="M74.886,78.434l-17.33-30.02V38.335h0.772c2.118,0,3.842-1.724,3.842-3.842c0-2.119-1.724-3.843-3.842-3.843H43.146  c-2.119,0-3.842,1.724-3.842,3.843c0,2.119,1.724,3.842,3.842,3.842h0.927v9.811L26.586,78.434c-1.362,2.36-1.362,5.291,0,7.651  c1.363,2.36,3.902,3.827,6.626,3.827h35.048c2.726,0,5.265-1.467,6.625-3.827C76.25,83.726,76.25,80.793,74.886,78.434z   M43.146,35.778c-0.708,0-1.285-0.576-1.285-1.285s0.576-1.285,1.285-1.285h15.183c0.708,0,1.283,0.577,1.283,1.285  s-0.575,1.285-1.283,1.285h-2.052c-0.706,0-1.279,0.573-1.279,1.279v11.7c0,0.225,0.06,0.445,0.172,0.639L65.747,67.72  c-0.034,0.005-0.069,0.003-0.104,0.009c-0.345,0.055-0.651,0.102-0.889,0.102c-0.916,0-1.835-0.238-2.731-0.708  c-0.43-0.228-0.889-0.335-1.344-0.335c-0.969,0-1.91,0.488-2.456,1.361c-1.131,1.813-3.039,2.894-5.104,2.894  c-2.854,0-5.286-2.003-5.914-4.87c-0.203-0.932-0.851-1.702-1.732-2.061c-0.351-0.145-0.723-0.215-1.092-0.215  c-0.554,0-1.107,0.16-1.584,0.474c-0.987,0.646-2.112,0.987-3.25,0.987c-0.517,0-1.074-0.097-1.753-0.307  c-0.155-0.049-0.311-0.081-0.467-0.103l2.373-4.109h11.535c0.706,0,1.279-0.573,1.279-1.279s-0.573-1.279-1.279-1.279H41.177  l1.872-3.241h7.688c0.707,0,1.279-0.573,1.279-1.279s-0.572-1.279-1.279-1.279h-6.21l1.808-3.13  c0.026-0.036,0.051-0.074,0.076-0.112h4.825c0.706,0,1.279-0.573,1.279-1.279s-0.573-1.279-1.279-1.279H46.63v-3.242h4.604  c0.706,0,1.279-0.573,1.279-1.279s-0.573-1.279-1.279-1.279H46.63v-3.824c0-0.706-0.573-1.279-1.279-1.279H43.146z"/>
  <path d="M43.003,18.476c3.839,0,6.962-3.123,6.962-6.962s-3.124-6.962-6.962-6.962s-6.962,3.123-6.962,6.962  S39.165,18.476,43.003,18.476z M43.003,7.109c2.429,0,4.405,1.976,4.405,4.404s-1.976,4.404-4.405,4.404s-4.405-1.976-4.405-4.404  S40.575,7.109,43.003,7.109z"/>
  <path d="M48.544,24.017c0,2.272,1.849,4.121,4.121,4.121c2.272,0,4.121-1.849,4.121-4.121s-1.849-4.121-4.121-4.121  C50.393,19.896,48.544,21.745,48.544,24.017z M52.665,22.454c0.862,0,1.563,0.701,1.563,1.563s-0.7,1.563-1.563,1.563  s-1.563-0.701-1.563-1.563S51.803,22.454,52.665,22.454z"/>
  <text x="0" y="115" fill="#000000" font-size="5px" font-weight="bold" font-family="'Helvetica Neue', Helvetica, Arial-Unicode, Arial, Sans-serif">Created by Gregory Sujkowski</text>
  <text x="0" y="120" fill="#000000" font-size="5px" font-weight="bold" font-family="'Helvetica Neue', Helvetica, Arial-Unicode, Arial, Sans-serif">from the Noun Project</text>
</svg>
